<svg width="48" height="48" viewBox="0 0 48 48" fill="none" xmlns="http://www.w3.org/2000/svg">
<path d="M37.3911 48H10.6142C4.75279 48 0 43.2477 0 37.387V10.613C0 4.75227 4.75279 0 10.6142 0H37.3858C43.2472 0 48 4.75227 48 10.613V37.3817C48.0053 43.2477 43.2525 48 37.3911 48Z" fill="#242424"/>
<path d="M22.3003 20.5154C16.2373 22.3187 5.52765 26.4504 5.01312 43.2159C6.94925 34.1888 11.7233 32.8946 20.4968 30.8314C29.2704 28.7735 34.0391 26.4504 39.3329 20.1282C44.6215 13.806 42.818 4.77881 42.818 4.77881C42.818 9.67958 39.3329 12.9043 35.9805 15.2274C32.6281 17.5505 28.3633 18.7121 22.3003 20.5154Z" fill="url(#paint0_linear_218_404)"/>
<path d="M5.01312 43.2212C5.02904 42.7863 5.05025 42.3673 5.07677 41.9536C5.02904 42.3991 5.00252 42.8234 5.01312 43.2212Z" fill="url(#paint1_linear_218_404)"/>
<path d="M27.5783 28.7629C23.0218 29.6221 18.3804 29.5214 15.3356 30.3222C9.9198 31.7384 5.40571 38.1879 5.01318 43.2159C5.0291 42.7863 5.05031 42.3673 5.07684 41.9483C5.67624 36.4747 10.7208 27.4953 21.7859 22.5786C25.308 21.0139 28.4801 19.3538 31.2384 17.6566C33.0207 16.9618 34.5802 16.1927 35.9753 15.2274C39.3277 12.9043 42.8127 9.67958 42.8127 4.77881C42.8127 4.77881 43.0992 12.1406 40.7121 18.4416C40.3833 19.0409 40.012 19.619 39.5876 20.1653C36.3731 24.3395 32.5804 26.8959 27.5783 28.7629Z" fill="url(#paint2_linear_218_404)"/>
<path d="M5.08739 41.7362C5.05557 42.2188 5.02904 42.7121 5.01313 43.2159C4.9813 42.7598 5.00782 42.2612 5.08739 41.7362C6.1695 26.2011 16.4177 22.2657 22.3003 20.5154C28.3633 18.7121 32.6228 17.5505 35.9752 15.2274C39.3276 12.9043 42.8127 9.67958 42.8127 4.77881C42.8127 4.77881 44.6215 13.806 39.3276 20.1282C34.0391 26.4504 29.6523 23.8674 20.8787 25.9306C12.8743 27.8188 5.94141 36.2573 5.08739 41.7362Z" fill="url(#paint3_linear_218_404)"/>
<path d="M18.6881 26.8376C26.9471 25.2889 32.103 25.4162 37.7841 19.3538C43.4599 13.2915 42.8127 4.77881 42.8127 4.77881C42.8127 9.67958 39.3277 12.9043 35.9753 15.2274C34.5749 16.198 33.0154 16.9618 31.2384 17.6566C28.4801 19.3538 24.6662 21.0882 21.144 22.6528C10.0789 27.5695 5.67624 36.4747 5.07684 41.9483C5.05031 42.362 5.0291 42.781 5.01318 43.2159C5.40571 38.1826 10.4343 28.3863 18.6881 26.8376Z" fill="url(#paint4_linear_218_404)"/>
<path d="M5.01312 43.2212C5.02904 42.7863 5.05025 42.3673 5.07677 41.9536C5.02904 42.3991 5.00252 42.8234 5.01312 43.2212Z" fill="url(#paint5_linear_218_404)"/>
<path d="M24.4964 21.8095C9.39991 24.6471 4.88583 37.9757 5.01313 43.2212C5.40036 38.1932 9.78714 32.3854 15.4629 29.288C23.8492 25.029 32.6228 27.3521 38.6858 21.1625C44.7488 14.9728 42.8127 4.77881 42.8127 4.77881C42.8127 9.67958 41.0038 14.3258 37.7787 17.036C34.5589 19.741 28.1087 21.12 24.4964 21.8095Z" fill="url(#paint6_linear_218_404)"/>
<defs>
<linearGradient id="paint0_linear_218_404" x1="23.7964" y1="30.0133" x2="22.8935" y2="43.429" gradientUnits="userSpaceOnUse">
<stop stop-color="#FD5200"/>
<stop offset="0.2722" stop-color="#FFDC38"/>
<stop offset="0.9626" stop-color="#F3FEAB"/>
</linearGradient>
<linearGradient id="paint1_linear_218_404" x1="15.4085" y1="2.59426" x2="6.3737" y2="37.4593" gradientUnits="userSpaceOnUse">
<stop offset="0.4072" stop-color="#9E010A"/>
<stop offset="0.6244" stop-color="#FC56A4"/>
<stop offset="0.689" stop-color="#F2A780"/>
<stop offset="0.7431" stop-color="#FFC78A"/>
</linearGradient>
<linearGradient id="paint2_linear_218_404" x1="25.6223" y1="13.19" x2="22.2791" y2="37.225" gradientUnits="userSpaceOnUse">
<stop offset="0.4072" stop-color="#9E010A"/>
<stop offset="0.6244" stop-color="#FC56A4"/>
<stop offset="0.689" stop-color="#F2A780"/>
<stop offset="0.7431" stop-color="#FFC78A"/>
</linearGradient>
<linearGradient id="paint3_linear_218_404" x1="32.4644" y1="18.3298" x2="7.05121" y2="36.6499" gradientUnits="userSpaceOnUse">
<stop offset="0.0753769" stop-color="#0C64CC"/>
<stop offset="0.3348" stop-color="#1F9FE3"/>
<stop offset="0.4851" stop-color="#1B9DEB"/>
<stop offset="0.7569" stop-color="#72F07F"/>
<stop offset="0.8584" stop-color="#DBFEC8"/>
<stop offset="0.9913" stop-color="#F6F9B1"/>
</linearGradient>
<linearGradient id="paint4_linear_218_404" x1="31.7176" y1="28.6421" x2="20.7775" y2="22.1295" gradientUnits="userSpaceOnUse">
<stop offset="0.0251256" stop-color="#4226A2"/>
<stop offset="0.2769" stop-color="#7357CB"/>
<stop offset="0.4721" stop-color="#4783DF"/>
<stop offset="0.5228" stop-color="#3B8FE4"/>
<stop offset="0.5797" stop-color="#3B9DE4"/>
<stop offset="0.6561" stop-color="#3BA7E4"/>
<stop offset="0.7412" stop-color="#3BABE4"/>
</linearGradient>
<linearGradient id="paint5_linear_218_404" x1="18.616" y1="50.6636" x2="7.78034" y2="44.2138" gradientUnits="userSpaceOnUse">
<stop stop-color="#4226A2"/>
<stop offset="0.3221" stop-color="#7357CB"/>
<stop offset="0.6283" stop-color="#3B8FE4"/>
</linearGradient>
<linearGradient id="paint6_linear_218_404" x1="43.7011" y1="10.2847" x2="5.90439" y2="39.8287" gradientUnits="userSpaceOnUse">
<stop stop-color="#7C4ADF"/>
<stop offset="0.3459" stop-color="#E251D8"/>
<stop offset="0.7297" stop-color="#FCDFBC"/>
<stop offset="0.8312" stop-color="#F6F8B0"/>
<stop offset="0.9186" stop-color="#FFFFF2"/>
<stop offset="0.9894" stop-color="#F6F8B0"/>
</linearGradient>
</defs>
</svg>
